# xmcd CD database file
#
# Track frame offsets:
#	182
#	14947
#	31357
#	43967
#	62335
#	75680
#	91565
#	101710
#	113602
#	126240
#	140247
#	152460
#	167772
#	182807
#	196365
#	208560
#
# Disc length: 2981 seconds
#
# Revision: 0
# Processed by: cddbd v1.4PL0 Copyright (c) Steve Scherf et al.
# Submitted via: CDex 1.50beta9
#
DISCID=da0ba310
DTITLE=Logue and McCool - Rainbows and Roses
DYEAR=1990
DGENRE=Country
TTITLE0=Rainbows and Roses
TTITLE1=Missing You
TTITLE2=Leaving Here A Better Man
TTITLE3=Don't Close Your Eyes
TTITLE4=Actions Speak Louder Than Words
TTITLE5=Chill Factor
TTITLE6=Day Dreams
TTITLE7=Roads And Other Reasons 
TTITLE8=Wolverton Mountain
TTITLE9=I'll Get By Without You
TTITLE10=Plane To Birmingham
TTITLE11=Chiselled In Stone
TTITLE12=I'm No Stranger To The Rain
TTITLE13=Black Limousine
TTITLE14=Imagine That
TTITLE15=Theres Nothing I Can Do About It Now
EXTD=YEAR: 1990
EXTT0=
EXTT1=
EXTT2=
EXTT3=
EXTT4=
EXTT5=
EXTT6=
EXTT7=
EXTT8=
EXTT9=
EXTT10=
EXTT11=
EXTT12=
EXTT13=
EXTT14=
EXTT15=
PLAYORDER=
